# xmcd
#
# Track frame offsets:
#	150
#	13771
#	27837
#	41201
#	52768
#	66199
#	79749
#	93694
#	107546
#	119806
#	133517
#	146801
#	159801
#	171757
#	186703
#	198092
#	210792
#	225743
#	239362
#	252827
#	265480
#	278617
#	292700
#	304963
#	319792
#	333792
#
# Disc length: 4600 seconds
#
# Revision: 0
# Processed by: cddbd v1.5.2PL0 Copyright (c) Steve Scherf et al.
# Submitted via: audiograbber 1.83.01
#
DISCID=7011f61a
DTITLE=Sonny Boy Williamson - The Original Sonny Boy Williamson - The Early Yea
DTITLE=rs - 1937
DYEAR=2007
DGENRE=Blues
TTITLE0=Sonny Boy Williamson - Good Morning, Little School Girl
TTITLE1=Sonny Boy Williamson - Blue Bird Blues
TTITLE2=Sonny Boy Williamson - Jackson Blues
TTITLE3=Sonny Boy Williamson - Got The Bottle Up And Gone
TTITLE4=Sonny Boy Williamson - Sugar Mama Blues
TTITLE5=Sonny Boy Williamson - Skinny Woman
TTITLE6=Robert Lee McCoy - Tough Luck
TTITLE7=Robert Lee McCoy - Prowling Night-Hawk
TTITLE8=Robert Lee McCoy - Sweet Pepper Mama
TTITLE9=Big Joe Williams - I Know You Gonna Miss Me
TTITLE10=Big Joe Williams - Rootin' Ground Hog
TTITLE11=Big Joe Williams - Brother James
TTITLE12=Big Joe Williams - I Won't Be In Hard Luck No More
TTITLE13=Sonny Boy Williamson - Up The Country Blues
TTITLE14=Sonny Boy Williamson - Worried Me Blues
TTITLE15=Sonny Boy Williamson - Black Gal Blues
TTITLE16=Sonny Boy Williamson - Collector Man Blues
TTITLE17=Sonny Boy Williamson - Frigidaire Blues
TTITLE18=Sonny Boy Williamson - Suzanna Blues
TTITLE19=Sonny Boy Williamson - Early In The Morning
TTITLE20=Sonny Boy Williamson - Project Highway
TTITLE21=Robert Lee McCoy - My Friend Has Forsaken Me
TTITLE22=Robert Lee McCoy - Mean Black Cat
TTITLE23=Robert Lee McCoy - Brickyard
TTITLE24=Robert Lee McCoy - Mamie Lee
TTITLE25=Robert Lee McCoy - Take It Easy Baby
EXTD=
EXTT0=
EXTT1=
EXTT2=
EXTT3=
EXTT4=
EXTT5=
EXTT6=
EXTT7=
EXTT8=
EXTT9=
EXTT10=
EXTT11=
EXTT12=
EXTT13=
EXTT14=
EXTT15=
EXTT16=
EXTT17=
EXTT18=
EXTT19=
EXTT20=
EXTT21=
EXTT22=
EXTT23=
EXTT24=
EXTT25=
PLAYORDER=
